<svg width="150" height="35" viewBox="0 0 150 35" fill="none" xmlns="http://www.w3.org/2000/svg">
<path d="M14.478 27.9351C12.222 27.9351 10.23 27.5631 8.50205 26.8191C6.79805 26.0511 5.35805 25.0311 4.18205 23.7591C3.03005 22.4631 2.15405 21.0111 1.55405 19.4031C0.978047 17.7711 0.690047 16.0791 0.690047 14.3271V13.5351C0.690047 11.8791 0.978047 10.2591 1.55405 8.67513C2.13005 7.09113 2.97005 5.66313 4.07405 4.39113C5.20205 3.11913 6.58205 2.11113 8.21405 1.36713C9.87005 0.599128 11.766 0.215127 13.902 0.215127C16.206 0.215127 18.246 0.647128 20.022 1.51113C21.798 2.35113 23.226 3.53913 24.306 5.07513C25.386 6.58713 26.022 8.35113 26.214 10.3671H21.066C20.898 9.23913 20.478 8.27913 19.806 7.48713C19.134 6.67113 18.282 6.04713 17.25 5.61513C16.242 5.18313 15.126 4.96713 13.902 4.96713C12.678 4.96713 11.562 5.18313 10.554 5.61513C9.57005 6.04713 8.73005 6.65913 8.03405 7.45113C7.33805 8.24313 6.79805 9.19113 6.41405 10.2951C6.05405 11.3991 5.87405 12.6231 5.87405 13.9671C5.87405 15.4311 6.07805 16.7391 6.48605 17.8911C6.89405 19.0431 7.47005 20.0271 8.21405 20.8431C8.95805 21.6351 9.85805 22.2471 10.914 22.6791C11.97 23.0871 13.158 23.2911 14.478 23.2911C16.23 23.2911 17.766 22.9311 19.086 22.2111C20.406 21.4671 21.366 20.5071 21.966 19.3311L21.066 23.4711V16.7031H25.782V22.5351C24.654 24.2391 23.118 25.5711 21.174 26.5311C19.23 27.4671 16.998 27.9351 14.478 27.9351ZM13.65 17.7111V13.8951H27.978V17.7111H13.65ZM31.7952 27.2511V7.70313H35.7552V15.9831H35.6472C35.6472 13.1751 36.2472 11.0511 37.4472 9.61113C38.6472 8.17113 40.4112 7.45113 42.7392 7.45113H43.4592V11.8071H42.0912C40.4112 11.8071 39.1032 12.2631 38.1672 13.1751C37.2552 14.0631 36.7992 15.3591 36.7992 17.0631V27.2511H31.7952ZM58.5454 27.2511V21.4551H57.7174V15.0111C57.7174 13.8831 57.4414 13.0431 56.8894 12.4911C56.3374 11.9391 55.4854 11.6631 54.3334 11.6631C53.7334 11.6631 53.0134 11.6751 52.1734 11.6991C51.3334 11.7231 50.4814 11.7591 49.6174 11.8071C48.7774 11.8311 48.0214 11.8671 47.3494 11.9151V7.66713C47.9014 7.61913 48.5254 7.57113 49.2214 7.52313C49.9174 7.47513 50.6254 7.45113 51.3454 7.45113C52.0894 7.42713 52.7854 7.41513 53.4334 7.41513C55.4494 7.41513 57.1174 7.67913 58.4374 8.20713C59.7814 8.73513 60.7894 9.56313 61.4614 10.6911C62.1574 11.8191 62.5054 13.2951 62.5054 15.1191V27.2511H58.5454ZM52.2454 27.7551C50.8294 27.7551 49.5814 27.5031 48.5014 26.9991C47.4454 26.4951 46.6174 25.7751 46.0174 24.8391C45.4414 23.9031 45.1534 22.7751 45.1534 21.4551C45.1534 20.0151 45.5014 18.8391 46.1974 17.9271C46.9174 17.0151 47.9134 16.3311 49.1854 15.8751C50.4814 15.4191 51.9934 15.1911 53.7214 15.1911H58.2574V18.1791H53.6494C52.4974 18.1791 51.6094 18.4671 50.9854 19.0431C50.3854 19.5951 50.0854 20.3151 50.0854 21.2031C50.0854 22.0911 50.3854 22.8111 50.9854 23.3631C51.6094 23.9151 52.4974 24.1911 53.6494 24.1911C54.3454 24.1911 54.9814 24.0711 55.5574 23.8311C56.1574 23.5671 56.6494 23.1351 57.0334 22.5351C57.4414 21.9111 57.6694 21.0711 57.7174 20.0151L58.9414 21.4191C58.8214 22.7871 58.4854 23.9391 57.9334 24.8751C57.4054 25.8111 56.6614 26.5311 55.7014 27.0351C54.7654 27.5151 53.6134 27.7551 52.2454 27.7551ZM67.0434 34.9551V30.6711H70.7154C71.4114 30.6711 71.9874 30.5751 72.4434 30.3831C72.9234 30.2151 73.3194 29.9271 73.6314 29.5191C73.9434 29.1351 74.1834 28.5951 74.3514 27.8991L79.6074 7.70313H84.3954L78.5994 28.9791C78.2154 30.4431 77.6754 31.6071 76.9794 32.4711C76.2834 33.3591 75.3834 33.9951 74.2794 34.3791C73.1994 34.7631 71.8554 34.9551 70.2474 34.9551H67.0434ZM73.1274 26.8191V22.8591H77.3034V26.8191H73.1274ZM71.4354 26.8191L65.0994 7.70313H70.1394L76.1514 26.8191H71.4354ZM94.7505 27.8631C92.0625 27.8631 89.9505 27.2991 88.4145 26.1711C86.9025 25.0191 86.1105 23.4351 86.0385 21.4191H90.5385C90.6105 22.0911 90.9825 22.7031 91.6545 23.2551C92.3265 23.8071 93.3825 24.0831 94.8225 24.0831C96.0225 24.0831 96.9705 23.8671 97.6665 23.4351C98.3865 23.0031 98.7465 22.4151 98.7465 21.6711C98.7465 21.0231 98.4705 20.5071 97.9185 20.1231C97.3905 19.7391 96.4785 19.4871 95.1825 19.3671L93.4545 19.1871C91.2705 18.9471 89.5905 18.3231 88.4145 17.3151C87.2385 16.3071 86.6505 14.9631 86.6505 13.2831C86.6505 11.9391 86.9865 10.8111 87.6585 9.89913C88.3305 8.98713 89.2545 8.30313 90.4305 7.84713C91.6305 7.36713 92.9985 7.12713 94.5345 7.12713C96.9345 7.12713 98.8785 7.65513 100.366 8.71113C101.854 9.76713 102.634 11.3151 102.706 13.3551H98.2065C98.1585 12.6831 97.8225 12.1071 97.1985 11.6271C96.5745 11.1471 95.6745 10.9071 94.4985 10.9071C93.4425 10.9071 92.6265 11.1111 92.0505 11.5191C91.4745 11.9271 91.1865 12.4551 91.1865 13.1031C91.1865 13.7271 91.4145 14.2071 91.8705 14.5431C92.3505 14.8791 93.1185 15.1071 94.1745 15.2271L95.9025 15.4071C98.2065 15.6471 100.006 16.2831 101.302 17.3151C102.622 18.3471 103.282 19.7391 103.282 21.4911C103.282 22.7871 102.922 23.9151 102.202 24.8751C101.506 25.8111 100.522 26.5431 99.2505 27.0711C97.9785 27.5991 96.4785 27.8631 94.7505 27.8631ZM116.812 27.9351C115.084 27.9351 113.56 27.6591 112.24 27.1071C110.92 26.5551 109.804 25.8111 108.892 24.8751C107.98 23.9151 107.284 22.8351 106.804 21.6351C106.348 20.4351 106.12 19.1871 106.12 17.8911V17.1351C106.12 15.7911 106.36 14.5191 106.84 13.3191C107.344 12.0951 108.052 11.0151 108.964 10.0791C109.9 9.11913 111.028 8.37513 112.348 7.84713C113.668 7.29513 115.156 7.01913 116.812 7.01913C118.468 7.01913 119.956 7.29513 121.276 7.84713C122.596 8.37513 123.712 9.11913 124.624 10.0791C125.56 11.0151 126.268 12.0951 126.748 13.3191C127.228 14.5191 127.468 15.7911 127.468 17.1351V17.8911C127.468 19.1871 127.228 20.4351 126.748 21.6351C126.292 22.8351 125.608 23.9151 124.696 24.8751C123.784 25.8111 122.668 26.5551 121.348 27.1071C120.028 27.6591 118.516 27.9351 116.812 27.9351ZM116.812 23.6511C118.036 23.6511 119.068 23.3871 119.908 22.8591C120.748 22.3071 121.384 21.5751 121.816 20.6631C122.248 19.7271 122.464 18.6711 122.464 17.4951C122.464 16.2951 122.236 15.2391 121.78 14.3271C121.348 13.3911 120.7 12.6591 119.836 12.1311C118.996 11.5791 117.988 11.3031 116.812 11.3031C115.636 11.3031 114.616 11.5791 113.752 12.1311C112.912 12.6591 112.264 13.3911 111.808 14.3271C111.352 15.2391 111.124 16.2951 111.124 17.4951C111.124 18.6711 111.34 19.7271 111.772 20.6631C112.228 21.5751 112.876 22.3071 113.716 22.8591C114.556 23.3871 115.588 23.6511 116.812 23.6511ZM131.85 27.2511V7.70313H135.81V16.0911H135.45C135.45 14.0991 135.714 12.4431 136.242 11.1231C136.77 9.77913 137.55 8.77113 138.582 8.09913C139.638 7.42713 140.946 7.09113 142.506 7.09113H142.722C145.05 7.09113 146.814 7.84713 148.014 9.35913C149.214 10.8471 149.814 13.0791 149.814 16.0551V27.2511H144.81V15.6231C144.81 14.4231 144.462 13.4511 143.766 12.7071C143.094 11.9631 142.158 11.5911 140.958 11.5911C139.734 11.5911 138.738 11.9751 137.97 12.7431C137.226 13.4871 136.854 14.4951 136.854 15.7671V27.2511H131.85Z" fill="#111212"/>
</svg>
