<svg width="150" height="36" viewBox="0 0 150 36" fill="none" xmlns="http://www.w3.org/2000/svg">
<path d="M14.1128 28.391C11.8568 28.391 9.86481 28.019 8.13681 27.275C6.43281 26.507 4.99281 25.487 3.81681 24.215C2.66481 22.919 1.78881 21.467 1.18881 19.859C0.612813 18.227 0.324813 16.535 0.324813 14.783V13.991C0.324813 12.335 0.612813 10.715 1.18881 9.13103C1.76481 7.54703 2.60481 6.11903 3.70881 4.84703C4.83681 3.57503 6.21681 2.56703 7.84881 1.82303C9.50481 1.05503 11.4008 0.67103 13.5368 0.67103C15.8408 0.67103 17.8808 1.10303 19.6568 1.96703C21.4328 2.80703 22.8608 3.99503 23.9408 5.53103C25.0208 7.04303 25.6568 8.80703 25.8488 10.823H20.7008C20.5328 9.69503 20.1128 8.73503 19.4408 7.94303C18.7688 7.12703 17.9168 6.50303 16.8848 6.07103C15.8768 5.63903 14.7608 5.42303 13.5368 5.42303C12.3128 5.42303 11.1968 5.63903 10.1888 6.07103C9.20481 6.50303 8.36481 7.11503 7.66881 7.90703C6.97281 8.69903 6.43281 9.64703 6.04881 10.751C5.68881 11.855 5.50881 13.079 5.50881 14.423C5.50881 15.887 5.71281 17.195 6.12081 18.347C6.52881 19.499 7.10481 20.483 7.84881 21.299C8.59281 22.091 9.49281 22.703 10.5488 23.135C11.6048 23.543 12.7928 23.747 14.1128 23.747C15.8648 23.747 17.4008 23.387 18.7208 22.667C20.0408 21.923 21.0008 20.963 21.6008 19.787L20.7008 23.927V17.159H25.4168V22.991C24.2888 24.695 22.7528 26.027 20.8088 26.987C18.8648 27.923 16.6328 28.391 14.1128 28.391ZM13.2848 18.167V14.351H27.6128V18.167H13.2848ZM31.4299 27.707V8.15903H35.3899V16.439H35.2819C35.2819 13.631 35.8819 11.507 37.0819 10.067C38.2819 8.62703 40.0459 7.90703 42.3739 7.90703H43.0939V12.263H41.7259C40.0459 12.263 38.7379 12.719 37.8019 13.631C36.8899 14.519 36.4339 15.815 36.4339 17.519V27.707H31.4299ZM58.1802 27.707V21.911H57.3522V15.467C57.3522 14.339 57.0762 13.499 56.5242 12.947C55.9722 12.395 55.1202 12.119 53.9682 12.119C53.3682 12.119 52.6482 12.131 51.8082 12.155C50.9682 12.179 50.1162 12.215 49.2522 12.263C48.4122 12.287 47.6562 12.323 46.9842 12.371V8.12303C47.5362 8.07503 48.1602 8.02703 48.8562 7.97903C49.5522 7.93103 50.2602 7.90703 50.9802 7.90703C51.7242 7.88303 52.4202 7.87103 53.0682 7.87103C55.0842 7.87103 56.7522 8.13503 58.0722 8.66303C59.4162 9.19103 60.4242 10.019 61.0962 11.147C61.7922 12.275 62.1402 13.751 62.1402 15.575V27.707H58.1802ZM51.8802 28.211C50.4642 28.211 49.2162 27.959 48.1362 27.455C47.0802 26.951 46.2522 26.231 45.6522 25.295C45.0762 24.359 44.7882 23.231 44.7882 21.911C44.7882 20.471 45.1362 19.295 45.8322 18.383C46.5522 17.471 47.5482 16.787 48.8202 16.331C50.1162 15.875 51.6282 15.647 53.3562 15.647H57.8922V18.635H53.2842C52.1322 18.635 51.2442 18.923 50.6202 19.499C50.0202 20.051 49.7202 20.771 49.7202 21.659C49.7202 22.547 50.0202 23.267 50.6202 23.819C51.2442 24.371 52.1322 24.647 53.2842 24.647C53.9802 24.647 54.6162 24.527 55.1922 24.287C55.7922 24.023 56.2842 23.591 56.6682 22.991C57.0762 22.367 57.3042 21.527 57.3522 20.471L58.5762 21.875C58.4562 23.243 58.1202 24.395 57.5682 25.331C57.0402 26.267 56.2962 26.987 55.3362 27.491C54.4002 27.971 53.2482 28.211 51.8802 28.211ZM66.6782 35.411V31.127H70.3502C71.0462 31.127 71.6222 31.031 72.0782 30.839C72.5582 30.671 72.9542 30.383 73.2662 29.975C73.5782 29.591 73.8182 29.051 73.9862 28.355L79.2422 8.15903H84.0302L78.2342 29.435C77.8502 30.899 77.3102 32.063 76.6142 32.927C75.9182 33.815 75.0182 34.451 73.9142 34.835C72.8342 35.219 71.4902 35.411 69.8822 35.411H66.6782ZM72.7622 27.275V23.315H76.9382V27.275H72.7622ZM71.0702 27.275L64.7342 8.15903H69.7742L75.7862 27.275H71.0702ZM94.3852 28.319C91.6972 28.319 89.5852 27.755 88.0492 26.627C86.5372 25.475 85.7452 23.891 85.6732 21.875H90.1732C90.2452 22.547 90.6172 23.159 91.2892 23.711C91.9612 24.263 93.0172 24.539 94.4572 24.539C95.6572 24.539 96.6052 24.323 97.3012 23.891C98.0212 23.459 98.3812 22.871 98.3812 22.127C98.3812 21.479 98.1052 20.963 97.5532 20.579C97.0252 20.195 96.1132 19.943 94.8172 19.823L93.0892 19.643C90.9052 19.403 89.2252 18.779 88.0492 17.771C86.8732 16.763 86.2852 15.419 86.2852 13.739C86.2852 12.395 86.6212 11.267 87.2932 10.355C87.9652 9.44303 88.8892 8.75903 90.0652 8.30303C91.2652 7.82303 92.6332 7.58303 94.1692 7.58303C96.5692 7.58303 98.5132 8.11103 100.001 9.16703C101.489 10.223 102.269 11.771 102.341 13.811H97.8412C97.7932 13.139 97.4572 12.563 96.8332 12.083C96.2092 11.603 95.3092 11.363 94.1332 11.363C93.0772 11.363 92.2612 11.567 91.6852 11.975C91.1092 12.383 90.8212 12.911 90.8212 13.559C90.8212 14.183 91.0492 14.663 91.5052 14.999C91.9852 15.335 92.7532 15.563 93.8092 15.683L95.5372 15.863C97.8412 16.103 99.6412 16.739 100.937 17.771C102.257 18.803 102.917 20.195 102.917 21.947C102.917 23.243 102.557 24.371 101.837 25.331C101.141 26.267 100.157 26.999 98.8852 27.527C97.6132 28.055 96.1132 28.319 94.3852 28.319ZM116.447 28.391C114.719 28.391 113.195 28.115 111.875 27.563C110.555 27.011 109.439 26.267 108.527 25.331C107.615 24.371 106.919 23.291 106.439 22.091C105.983 20.891 105.755 19.643 105.755 18.347V17.591C105.755 16.247 105.995 14.975 106.475 13.775C106.979 12.551 107.687 11.471 108.599 10.535C109.535 9.57503 110.663 8.83103 111.983 8.30303C113.303 7.75103 114.791 7.47503 116.447 7.47503C118.103 7.47503 119.591 7.75103 120.911 8.30303C122.231 8.83103 123.347 9.57503 124.259 10.535C125.195 11.471 125.903 12.551 126.383 13.775C126.863 14.975 127.103 16.247 127.103 17.591V18.347C127.103 19.643 126.863 20.891 126.383 22.091C125.927 23.291 125.243 24.371 124.331 25.331C123.419 26.267 122.303 27.011 120.983 27.563C119.663 28.115 118.151 28.391 116.447 28.391ZM116.447 24.107C117.671 24.107 118.703 23.843 119.543 23.315C120.383 22.763 121.019 22.031 121.451 21.119C121.883 20.183 122.099 19.127 122.099 17.951C122.099 16.751 121.871 15.695 121.415 14.783C120.983 13.847 120.335 13.115 119.471 12.587C118.631 12.035 117.623 11.759 116.447 11.759C115.271 11.759 114.251 12.035 113.387 12.587C112.547 13.115 111.899 13.847 111.443 14.783C110.987 15.695 110.759 16.751 110.759 17.951C110.759 19.127 110.975 20.183 111.407 21.119C111.863 22.031 112.511 22.763 113.351 23.315C114.191 23.843 115.223 24.107 116.447 24.107ZM131.485 27.707V8.15903H135.445V16.547H135.085C135.085 14.555 135.349 12.899 135.877 11.579C136.405 10.235 137.185 9.22703 138.217 8.55503C139.273 7.88303 140.581 7.54703 142.141 7.54703H142.357C144.685 7.54703 146.449 8.30303 147.649 9.81503C148.849 11.303 149.449 13.535 149.449 16.511V27.707H144.445V16.079C144.445 14.879 144.097 13.907 143.401 13.163C142.729 12.419 141.793 12.047 140.593 12.047C139.369 12.047 138.373 12.431 137.605 13.199C136.861 13.943 136.489 14.951 136.489 16.223V27.707H131.485Z" fill="#DDDDDD"/>
</svg>
